<svg width="433" height="236" viewBox="0 0 433 236" fill="none" xmlns="http://www.w3.org/2000/svg">
<path fill-rule="evenodd" clip-rule="evenodd" d="M322.64 35.5925C343.24 40.2993 359.048 50.7483 374.781 62.0939C426.375 99.3378 440.868 144.536 400.497 178.463C337.733 231.047 200.531 247.004 98.486 207.887C75.8848 199.244 45.1175 189.544 24.0804 164.493C4.51026 141.199 7.32188 118.513 18.8206 99.2193C30.541 79.4239 51.2991 63.1196 67.5701 53.2013C138.698 9.95426 275.976 -15.4047 393.978 34.5199C396.407 35.5116 398.955 35.0974 399.798 33.6195C400.64 32.1416 399.549 30.1738 397.297 29.216C275.828 -22.1691 134.22 3.46894 61.0112 47.9749C40.7642 60.3504 13.7867 82.3187 4.39002 108.604C-1.97249 126.58 -0.247363 146.537 16.7018 166.863C39.0379 193.534 71.6991 204.189 95.6899 213.378C201.037 253.771 342.932 237.479 407.638 183.148C451.094 146.694 435.81 98.1272 380.324 58.0894C363.414 45.8103 346.048 34.6703 323.687 29.5629C321.222 29.001 318.993 29.897 318.85 31.5892C318.531 33.2474 320.351 35.0644 322.64 35.5925Z" fill="#A2DA54"/>
</svg>
