<?xml version="1.0" standalone="no"?>
<!DOCTYPE svg PUBLIC "-//W3C//DTD SVG 20010904//EN"
 "http://www.w3.org/TR/2001/REC-SVG-20010904/DTD/svg10.dtd">
<svg version="1.0" xmlns="http://www.w3.org/2000/svg"
 width="1115.000000pt" height="1115.000000pt" viewBox="0 0 1115.000000 1115.000000"
 preserveAspectRatio="xMidYMid meet">
<metadata>
Created by potrace 1.14, written by Peter Selinger 2001-2017
</metadata>
<g transform="translate(0.000000,1115.000000) scale(0.100000,-0.100000)"
fill="#000000" stroke="none">
<path d="M0 5575 l0 -5575 5575 0 5575 0 0 5575 0 5575 -5575 0 -5575 0 0
-5575z m5813 5293 c49 -181 61 -275 54 -427 -10 -201 -63 -394 -163 -598 -95
-190 -171 -296 -445 -613 -532 -617 -971 -1445 -1209 -2281 -128 -451 -217
-968 -250 -1449 -17 -259 -24 -640 -12 -640 11 0 14 8 52 160 37 146 148 495
216 676 493 1323 1347 2430 2420 3138 72 47 136 86 142 86 6 0 17 -24 26 -52
57 -200 74 -358 57 -531 -26 -269 -122 -510 -291 -736 -38 -50 -176 -211 -307
-358 -354 -398 -488 -561 -637 -773 -349 -497 -581 -1054 -736 -1765 -12 -55
-24 -108 -26 -117 -12 -43 18 -11 61 65 275 480 560 854 939 1232 384 382 745
646 1201 875 221 112 493 226 506 213 16 -17 49 -139 60 -221 23 -170 -9 -391
-79 -545 -85 -186 -253 -377 -478 -543 -67 -49 -171 -125 -230 -169 -316 -233
-583 -498 -793 -789 -288 -399 -490 -897 -566 -1396 -22 -145 -31 -477 -16
-615 63 -584 370 -1074 806 -1285 187 -91 342 -128 570 -137 361 -14 636 78
903 302 83 69 146 138 277 298 l30 37 380 -235 c209 -129 387 -238 395 -243
13 -8 13 -14 -4 -45 -33 -64 -171 -240 -266 -340 -381 -403 -891 -652 -1444
-708 -148 -15 -474 -7 -646 15 -933 121 -1787 626 -2431 1437 -99 125 -288
403 -369 544 -95 166 -236 460 -308 641 -180 459 -268 822 -329 1364 -25 217
-28 279 -27 545 2 479 32 857 104 1290 158 943 372 1608 771 2395 388 767 940
1489 1550 2027 117 103 489 403 500 403 3 0 22 -60 42 -132z m1482 -6012 c511
-133 945 -418 1257 -826 77 -101 128 -176 128 -187 0 -4 -12 -15 -28 -24 -15
-9 -175 -108 -357 -220 -181 -113 -346 -215 -366 -227 l-37 -22 -70 89 c-182
227 -415 396 -662 481 -221 75 -506 82 -783 18 -49 -11 -91 -17 -94 -14 -10
10 104 229 172 331 35 52 91 128 123 168 148 180 490 467 556 467 17 0 90 -15
161 -34z"/>
</g>
</svg>
