<svg width="644" height="38" viewBox="0 0 644 38" fill="none" xmlns="http://www.w3.org/2000/svg">
<path fill-rule="evenodd" clip-rule="evenodd" d="M211.413 7.30877C167.178 7.99587 122.942 8.68301 78.7017 9.30031C77.8734 9.31187 77.1925 8.64973 77.1809 7.82139C77.1694 6.99304 77.8315 6.31216 78.6598 6.30061C122.889 5.68345 167.119 4.99642 211.349 4.30938C350.06 2.15475 488.778 0 627.521 0C632.11 0 635.561 0.0219142 637.975 0.0639533C639.182 0.0849583 640.138 0.11112 640.852 0.142569C641.527 0.172307 642.082 0.209801 642.417 0.271727C642.494 0.285829 642.664 0.318851 642.844 0.394253C642.918 0.425532 643.141 0.521939 643.352 0.733908C643.608 0.990288 643.947 1.54902 643.729 2.25423C643.567 2.7763 643.187 3.02688 643.095 3.08621C642.954 3.1772 642.826 3.2277 642.762 3.25146C642.625 3.30197 642.493 3.33162 642.409 3.34882C642.073 3.41762 641.532 3.47607 640.881 3.53179C639.529 3.64762 637.358 3.77791 634.493 3.92102C623.021 4.4941 600.089 5.28844 572.591 6.17489C556.411 6.69648 538.647 7.25006 520.698 7.80942C477.615 9.15202 433.465 10.5279 407.59 11.5744C398.276 11.9511 388.965 12.3238 379.655 12.6964C253.281 17.7544 127.288 22.7972 1.67619 37.6422C0.853491 37.7394 0.10774 37.1513 0.010512 36.3286C-0.0867164 35.5059 0.501396 34.7601 1.3241 34.6629C127.056 19.8036 253.161 14.7566 379.511 9.69976C388.829 9.32683 398.148 8.95384 407.469 8.57685C433.359 7.52973 477.535 6.15306 520.625 4.81023C538.569 4.25102 556.325 3.69768 572.494 3.17645C573.297 3.15056 574.096 3.12474 574.892 3.09901C453.724 3.54489 332.576 5.42672 211.413 7.30877ZM641.873 3.22196C641.883 3.22384 641.881 3.22379 641.868 3.22102C641.87 3.22134 641.872 3.22165 641.873 3.22196ZM641.812 0.408824C641.815 0.407963 641.817 0.407467 641.818 0.407308C641.819 0.407069 641.817 0.407616 641.812 0.408824Z" fill="#A2DA54"/>
</svg>
