<svg width="1047" height="1914" viewBox="0 0 1047 1914" fill="none" xmlns="http://www.w3.org/2000/svg">
<path d="M526.117 0C530.989 19.3204 537.468 38.4331 540.526 58.0651C545.814 94.7285 542.259 132.128 530.16 167.132C514.145 215.9 486.779 257.917 452.779 295.675C393.755 361.295 343.252 434.135 302.475 512.458C251.598 609.674 215.041 713.763 193.945 821.481C185.496 863.965 180.365 907.176 175.286 950.284C172.073 977.291 171.347 1004.61 170.103 1031.82C169.222 1052.6 169.222 1073.37 168.911 1094.15C168.983 1097.05 169.208 1099.94 169.585 1102.82H171.658C174.664 1091.5 177.618 1080.13 180.676 1068.8C223.694 909.202 293.249 762.377 393.85 631.133C470.385 529.959 564.49 443.435 671.654 375.709C673.208 374.722 674.919 373.892 678.495 371.918C682.33 387.499 687.047 401.678 689.327 416.376C702.388 501.084 674.66 572.601 618.892 635.444C575.925 683.849 531.715 731.475 492.169 782.633C420.956 874.716 374.103 979.213 347.048 1092.49C342.228 1112.69 338.081 1133.05 333.624 1153.36L335.697 1154.24C337.097 1152.16 338.651 1150.19 339.844 1148.06C375.029 1083.98 416.881 1023.82 464.7 968.566C560.117 859.499 673.157 774.738 810.141 724.464C812.162 723.736 814.184 722.853 816.257 722.126C816.997 722.044 817.745 722.044 818.485 722.126C825.317 737.622 829.268 754.237 830.147 771.155C834.708 837.27 807.601 890.349 759.815 933.145C736.129 954.387 709.126 971.838 683.574 990.95C568.254 1077.16 489.578 1188.31 454.852 1329.27C447.117 1361.32 442.517 1394.06 441.118 1427.01C438.008 1492.71 448.011 1555.55 479.679 1613.57C518.032 1683.94 576.443 1729.7 655.898 1741.95C758.986 1757.85 840.979 1719.98 901.049 1634.55L904.159 1630.13L1047 1717.91C1032.71 1741.4 1015.98 1763.32 997.089 1783.29C936.013 1849.23 854.882 1893.06 766.345 1907.94C726.153 1914.53 685.267 1915.75 644.754 1911.58C570.026 1904.82 497.173 1884.36 429.819 1851.23C369.713 1821.69 314.338 1783.34 265.521 1737.43C190.3 1666.68 129.426 1582.03 86.2437 1488.14C52.9859 1417.16 29.2996 1342.05 15.8079 1264.81C9.95119 1231.57 7.30791 1197.76 3.52438 1164.16C1.91768 1150.24 1.14024 1136.27 0 1122.3V1075.87C0.468659 1074.3 0.815232 1072.71 1.03658 1071.09C2.4878 1044.65 3.31706 1018.22 5.23474 991.989C7.56705 962.125 9.4329 932.106 14.0975 902.554C21.6646 854.876 29.6463 807.25 40.3231 760.144C63.4924 656.847 98.6834 556.634 145.173 461.561C194.989 357.952 258.554 261.567 334.142 175.026C382.711 119.606 436.518 69.026 494.813 23.9947C505.178 16.1523 514.767 7.99824 524.718 0H526.377" fill="#01342A"/>
</svg>
